<svg width="600" height="182" viewBox="0 0 600 182" fill="none" xmlns="http://www.w3.org/2000/svg">
<path d="M5.50012 175.638C228.94 -7.79321 358.025 -20.4389 597.5 175.638" stroke="#4E0054" stroke-width="11" stroke-linecap="round"/>
<g filter="url(#filter0_i_44_155)">
<rect width="46" height="67" rx="20" transform="matrix(0.916713 -0.399545 -0.399545 -0.916713 113.27 131.638)" fill="#FBA6CC"/>
</g>
<g filter="url(#filter1_i_44_155)">
<rect width="46" height="67" rx="20" transform="matrix(0.916713 -0.399545 -0.399545 -0.916713 168.27 100.638)" fill="#B576A7"/>
</g>
<g filter="url(#filter2_i_44_155)">
<rect width="46" height="67" rx="20" transform="matrix(0.952896 -0.303297 -0.303297 -0.952896 222.821 78.6378)" fill="#4E0054"/>
</g>
<g filter="url(#filter3_i_44_155)">
<path d="M507.876 113.304C503.462 123.429 491.676 128.06 481.55 123.647L476.05 121.25C465.924 116.836 461.293 105.05 465.707 94.9244L476.494 70.1732C480.908 60.0474 492.694 55.4165 502.82 59.8298L508.32 62.2271C518.446 66.6403 523.077 78.4265 518.663 88.5522L507.876 113.304Z" fill="#FBA6CC"/>
</g>
<g filter="url(#filter4_i_44_155)">
<path d="M452.876 82.3035C448.462 92.4292 436.676 97.0601 426.55 92.6469L421.05 90.2496C410.924 85.8363 406.293 74.0502 410.707 63.9244L421.494 39.1732C425.908 29.0474 437.694 24.4165 447.82 28.8298L453.32 31.2271C463.446 35.6403 468.077 47.4265 463.663 57.5522L452.876 82.3035Z" fill="#B576A7"/>
</g>
<g filter="url(#filter5_i_44_155)">
<path d="M396.399 59.5798C393.049 70.1052 381.801 75.922 371.275 72.5718L365.558 70.7521C355.033 67.4019 349.216 56.1536 352.566 45.6282L360.755 19.9C364.105 9.3746 375.354 3.55789 385.879 6.90801L391.596 8.72779C402.122 12.0779 407.938 23.3263 404.588 33.8517L396.399 59.5798Z" fill="#4E0054"/>
</g>
<rect width="46" height="67" rx="20" transform="matrix(0.999945 0.0105115 0.0105115 -0.999945 282.226 66.9962)" fill="#D9D9D9"/>
<g filter="url(#filter6_i_44_155)">
<path d="M282.437 46.9973C282.32 58.0424 291.18 67.0903 302.225 67.2064L308.225 67.2695C319.27 67.3856 328.318 58.5259 328.434 47.4808L328.718 20.4823C328.834 9.43721 319.974 0.389278 308.929 0.273171L302.929 0.210102C291.884 0.0939953 282.836 8.95368 282.72 19.9988L282.437 46.9973Z" fill="#FBA6CC"/>
</g>
<defs>
<filter id="filter0_i_44_155" x="92.8202" y="54.159" width="60.2982" height="71.1587" filterUnits="userSpaceOnUse" color-interpolation-filters="sRGB">
<feFlood flood-opacity="0" result="BackgroundImageFix"/>
<feBlend mode="normal" in="SourceGraphic" in2="BackgroundImageFix" result="shape"/>
<feColorMatrix in="SourceAlpha" type="matrix" values="0 0 0 0 0 0 0 0 0 0 0 0 0 0 0 0 0 0 127 0" result="hardAlpha"/>
<feOffset dx="4" dy="-9"/>
<feGaussianBlur stdDeviation="2"/>
<feComposite in2="hardAlpha" operator="arithmetic" k2="-1" k3="1"/>
<feColorMatrix type="matrix" values="0 0 0 0 0 0 0 0 0 0 0 0 0 0 0 0 0 0 0.25 0"/>
<feBlend mode="normal" in2="shape" result="effect1_innerShadow_44_155"/>
</filter>
<filter id="filter1_i_44_155" x="147.82" y="23.159" width="60.2982" height="71.1587" filterUnits="userSpaceOnUse" color-interpolation-filters="sRGB">
<feFlood flood-opacity="0" result="BackgroundImageFix"/>
<feBlend mode="normal" in="SourceGraphic" in2="BackgroundImageFix" result="shape"/>
<feColorMatrix in="SourceAlpha" type="matrix" values="0 0 0 0 0 0 0 0 0 0 0 0 0 0 0 0 0 0 127 0" result="hardAlpha"/>
<feOffset dx="4" dy="-10"/>
<feGaussianBlur stdDeviation="2"/>
<feComposite in2="hardAlpha" operator="arithmetic" k2="-1" k3="1"/>
<feColorMatrix type="matrix" values="0 0 0 0 0 0 0 0 0 0 0 0 0 0 0 0 0 0 0.25 0"/>
<feBlend mode="normal" in2="shape" result="effect1_innerShadow_44_155"/>
</filter>
<filter id="filter2_i_44_155" x="207.619" y="1.96053" width="57.9171" height="71.5588" filterUnits="userSpaceOnUse" color-interpolation-filters="sRGB">
<feFlood flood-opacity="0" result="BackgroundImageFix"/>
<feBlend mode="normal" in="SourceGraphic" in2="BackgroundImageFix" result="shape"/>
<feColorMatrix in="SourceAlpha" type="matrix" values="0 0 0 0 0 0 0 0 0 0 0 0 0 0 0 0 0 0 127 0" result="hardAlpha"/>
<feOffset dx="4" dy="-11"/>
<feGaussianBlur stdDeviation="2"/>
<feComposite in2="hardAlpha" operator="arithmetic" k2="-1" k3="1"/>
<feColorMatrix type="matrix" values="0 0 0 0 0 0 0 0 0 0 0 0 0 0 0 0 0 0 0.25 0"/>
<feBlend mode="normal" in2="shape" result="effect1_innerShadow_44_155"/>
</filter>
<filter id="filter3_i_44_155" x="460.036" y="54.159" width="60.2982" height="71.1587" filterUnits="userSpaceOnUse" color-interpolation-filters="sRGB">
<feFlood flood-opacity="0" result="BackgroundImageFix"/>
<feBlend mode="normal" in="SourceGraphic" in2="BackgroundImageFix" result="shape"/>
<feColorMatrix in="SourceAlpha" type="matrix" values="0 0 0 0 0 0 0 0 0 0 0 0 0 0 0 0 0 0 127 0" result="hardAlpha"/>
<feOffset dx="-5" dy="-9"/>
<feGaussianBlur stdDeviation="2"/>
<feComposite in2="hardAlpha" operator="arithmetic" k2="-1" k3="1"/>
<feColorMatrix type="matrix" values="0 0 0 0 0 0 0 0 0 0 0 0 0 0 0 0 0 0 0.25 0"/>
<feBlend mode="normal" in2="shape" result="effect1_innerShadow_44_155"/>
</filter>
<filter id="filter4_i_44_155" x="405.036" y="23.159" width="60.2982" height="71.1587" filterUnits="userSpaceOnUse" color-interpolation-filters="sRGB">
<feFlood flood-opacity="0" result="BackgroundImageFix"/>
<feBlend mode="normal" in="SourceGraphic" in2="BackgroundImageFix" result="shape"/>
<feColorMatrix in="SourceAlpha" type="matrix" values="0 0 0 0 0 0 0 0 0 0 0 0 0 0 0 0 0 0 127 0" result="hardAlpha"/>
<feOffset dx="-4" dy="-10"/>
<feGaussianBlur stdDeviation="2"/>
<feComposite in2="hardAlpha" operator="arithmetic" k2="-1" k3="1"/>
<feColorMatrix type="matrix" values="0 0 0 0 0 0 0 0 0 0 0 0 0 0 0 0 0 0 0.25 0"/>
<feBlend mode="normal" in2="shape" result="effect1_innerShadow_44_155"/>
</filter>
<filter id="filter5_i_44_155" x="351.619" y="1.96053" width="53.9171" height="71.5588" filterUnits="userSpaceOnUse" color-interpolation-filters="sRGB">
<feFlood flood-opacity="0" result="BackgroundImageFix"/>
<feBlend mode="normal" in="SourceGraphic" in2="BackgroundImageFix" result="shape"/>
<feColorMatrix in="SourceAlpha" type="matrix" values="0 0 0 0 0 0 0 0 0 0 0 0 0 0 0 0 0 0 127 0" result="hardAlpha"/>
<feOffset dy="-11"/>
<feGaussianBlur stdDeviation="2"/>
<feComposite in2="hardAlpha" operator="arithmetic" k2="-1" k3="1"/>
<feColorMatrix type="matrix" values="0 0 0 0 0 0 0 0 0 0 0 0 0 0 0 0 0 0 0.25 0"/>
<feBlend mode="normal" in2="shape" result="effect1_innerShadow_44_155"/>
</filter>
<filter id="filter6_i_44_155" x="282.435" y="-3.79094" width="46.2836" height="71.0615" filterUnits="userSpaceOnUse" color-interpolation-filters="sRGB">
<feFlood flood-opacity="0" result="BackgroundImageFix"/>
<feBlend mode="normal" in="SourceGraphic" in2="BackgroundImageFix" result="shape"/>
<feColorMatrix in="SourceAlpha" type="matrix" values="0 0 0 0 0 0 0 0 0 0 0 0 0 0 0 0 0 0 127 0" result="hardAlpha"/>
<feOffset dy="-9"/>
<feGaussianBlur stdDeviation="2"/>
<feComposite in2="hardAlpha" operator="arithmetic" k2="-1" k3="1"/>
<feColorMatrix type="matrix" values="0 0 0 0 0 0 0 0 0 0 0 0 0 0 0 0 0 0 0.25 0"/>
<feBlend mode="normal" in2="shape" result="effect1_innerShadow_44_155"/>
</filter>
</defs>
</svg>
