<svg width="602" height="182" viewBox="0 0 602 182" fill="none" xmlns="http://www.w3.org/2000/svg">
<path d="M4 5.50012C227.44 188.931 356.525 201.577 596 5.50012" stroke="#4E0054" stroke-width="11" stroke-linecap="round"/>
<g filter="url(#filter0_i_44_154)">
<rect x="111.77" y="49.5001" width="46" height="67" rx="20" transform="rotate(23.5497 111.77 49.5001)" fill="#FBA6CC"/>
</g>
<g filter="url(#filter1_i_44_154)">
<rect x="111.77" y="49.5001" width="46" height="67" rx="20" transform="rotate(23.5497 111.77 49.5001)" fill="#FBA6CC"/>
</g>
<g filter="url(#filter2_i_44_154)">
<rect x="166.77" y="80.5001" width="46" height="67" rx="20" transform="rotate(23.5497 166.77 80.5001)" fill="#B576A7"/>
</g>
<g filter="url(#filter3_i_44_154)">
<rect x="221.321" y="102.5" width="46" height="67" rx="20" transform="rotate(17.6557 221.321 102.5)" fill="#4E0054"/>
</g>
<g filter="url(#filter4_i_44_154)">
<path d="M506.375 67.8344C501.962 57.7087 490.176 53.0778 480.05 57.491L474.55 59.8883C464.424 64.3016 459.793 76.0877 464.207 86.2135L474.994 110.965C479.408 121.09 491.194 125.721 501.319 121.308L506.82 118.911C516.946 114.498 521.576 102.711 517.163 92.5857L506.375 67.8344Z" fill="#FBA6CC"/>
</g>
<g filter="url(#filter5_i_44_154)">
<path d="M451.375 98.8344C446.962 88.7087 435.176 84.0778 425.05 88.491L419.55 90.8883C409.424 95.3016 404.793 107.088 409.207 117.213L419.994 141.965C424.408 152.09 436.194 156.721 446.319 152.308L451.82 149.911C461.946 145.498 466.576 133.711 462.163 123.586L451.375 98.8344Z" fill="#B576A7"/>
</g>
<g filter="url(#filter6_i_44_154)">
<path d="M394.899 121.558C391.549 111.033 380.301 105.216 369.775 108.566L364.058 110.386C353.533 113.736 347.716 124.984 351.066 135.51L359.255 161.238C362.605 171.763 373.853 177.58 384.379 174.23L390.096 172.41C400.622 169.06 406.438 157.812 403.088 147.286L394.899 121.558Z" fill="#4E0054"/>
</g>
<rect x="280.726" y="114.142" width="46" height="67" rx="20" transform="rotate(-0.602276 280.726 114.142)" fill="#D9D9D9"/>
<g filter="url(#filter7_i_44_154)">
<path d="M280.936 134.14C280.82 123.095 289.68 114.047 300.725 113.931L306.725 113.868C317.77 113.752 326.818 122.612 326.934 133.657L327.218 160.655C327.334 171.701 318.474 180.748 307.429 180.865L301.429 180.928C290.384 181.044 281.336 172.184 281.22 161.139L280.936 134.14Z" fill="#FBA6CC"/>
</g>
<defs>
<filter id="filter0_i_44_154" x="91.3201" y="51.8202" width="60.2981" height="71.1587" filterUnits="userSpaceOnUse" color-interpolation-filters="sRGB">
<feFlood flood-opacity="0" result="BackgroundImageFix"/>
<feBlend mode="normal" in="SourceGraphic" in2="BackgroundImageFix" result="shape"/>
<feColorMatrix in="SourceAlpha" type="matrix" values="0 0 0 0 0 0 0 0 0 0 0 0 0 0 0 0 0 0 127 0" result="hardAlpha"/>
<feOffset dx="4" dy="-9"/>
<feGaussianBlur stdDeviation="2"/>
<feComposite in2="hardAlpha" operator="arithmetic" k2="-1" k3="1"/>
<feColorMatrix type="matrix" values="0 0 0 0 0 0 0 0 0 0 0 0 0 0 0 0 0 0 0.25 0"/>
<feBlend mode="normal" in2="shape" result="effect1_innerShadow_44_154"/>
</filter>
<filter id="filter1_i_44_154" x="91.3201" y="51.8202" width="60.2981" height="71.1587" filterUnits="userSpaceOnUse" color-interpolation-filters="sRGB">
<feFlood flood-opacity="0" result="BackgroundImageFix"/>
<feBlend mode="normal" in="SourceGraphic" in2="BackgroundImageFix" result="shape"/>
<feColorMatrix in="SourceAlpha" type="matrix" values="0 0 0 0 0 0 0 0 0 0 0 0 0 0 0 0 0 0 127 0" result="hardAlpha"/>
<feOffset dx="4" dy="-9"/>
<feGaussianBlur stdDeviation="2"/>
<feComposite in2="hardAlpha" operator="arithmetic" k2="-1" k3="1"/>
<feColorMatrix type="matrix" values="0 0 0 0 0 0 0 0 0 0 0 0 0 0 0 0 0 0 0.25 0"/>
<feBlend mode="normal" in2="shape" result="effect1_innerShadow_44_154"/>
</filter>
<filter id="filter2_i_44_154" x="146.32" y="82.8202" width="60.2981" height="71.1587" filterUnits="userSpaceOnUse" color-interpolation-filters="sRGB">
<feFlood flood-opacity="0" result="BackgroundImageFix"/>
<feBlend mode="normal" in="SourceGraphic" in2="BackgroundImageFix" result="shape"/>
<feColorMatrix in="SourceAlpha" type="matrix" values="0 0 0 0 0 0 0 0 0 0 0 0 0 0 0 0 0 0 127 0" result="hardAlpha"/>
<feOffset dx="4" dy="-10"/>
<feGaussianBlur stdDeviation="2"/>
<feComposite in2="hardAlpha" operator="arithmetic" k2="-1" k3="1"/>
<feColorMatrix type="matrix" values="0 0 0 0 0 0 0 0 0 0 0 0 0 0 0 0 0 0 0.25 0"/>
<feBlend mode="normal" in2="shape" result="effect1_innerShadow_44_154"/>
</filter>
<filter id="filter3_i_44_154" x="206.118" y="103.619" width="57.9171" height="71.5587" filterUnits="userSpaceOnUse" color-interpolation-filters="sRGB">
<feFlood flood-opacity="0" result="BackgroundImageFix"/>
<feBlend mode="normal" in="SourceGraphic" in2="BackgroundImageFix" result="shape"/>
<feColorMatrix in="SourceAlpha" type="matrix" values="0 0 0 0 0 0 0 0 0 0 0 0 0 0 0 0 0 0 127 0" result="hardAlpha"/>
<feOffset dx="4" dy="-11"/>
<feGaussianBlur stdDeviation="2"/>
<feComposite in2="hardAlpha" operator="arithmetic" k2="-1" k3="1"/>
<feColorMatrix type="matrix" values="0 0 0 0 0 0 0 0 0 0 0 0 0 0 0 0 0 0 0.25 0"/>
<feBlend mode="normal" in2="shape" result="effect1_innerShadow_44_154"/>
</filter>
<filter id="filter4_i_44_154" x="458.536" y="51.8202" width="60.2981" height="71.1587" filterUnits="userSpaceOnUse" color-interpolation-filters="sRGB">
<feFlood flood-opacity="0" result="BackgroundImageFix"/>
<feBlend mode="normal" in="SourceGraphic" in2="BackgroundImageFix" result="shape"/>
<feColorMatrix in="SourceAlpha" type="matrix" values="0 0 0 0 0 0 0 0 0 0 0 0 0 0 0 0 0 0 127 0" result="hardAlpha"/>
<feOffset dx="-5" dy="-9"/>
<feGaussianBlur stdDeviation="2"/>
<feComposite in2="hardAlpha" operator="arithmetic" k2="-1" k3="1"/>
<feColorMatrix type="matrix" values="0 0 0 0 0 0 0 0 0 0 0 0 0 0 0 0 0 0 0.25 0"/>
<feBlend mode="normal" in2="shape" result="effect1_innerShadow_44_154"/>
</filter>
<filter id="filter5_i_44_154" x="403.536" y="82.8202" width="60.2981" height="71.1587" filterUnits="userSpaceOnUse" color-interpolation-filters="sRGB">
<feFlood flood-opacity="0" result="BackgroundImageFix"/>
<feBlend mode="normal" in="SourceGraphic" in2="BackgroundImageFix" result="shape"/>
<feColorMatrix in="SourceAlpha" type="matrix" values="0 0 0 0 0 0 0 0 0 0 0 0 0 0 0 0 0 0 127 0" result="hardAlpha"/>
<feOffset dx="-4" dy="-10"/>
<feGaussianBlur stdDeviation="2"/>
<feComposite in2="hardAlpha" operator="arithmetic" k2="-1" k3="1"/>
<feColorMatrix type="matrix" values="0 0 0 0 0 0 0 0 0 0 0 0 0 0 0 0 0 0 0.25 0"/>
<feBlend mode="normal" in2="shape" result="effect1_innerShadow_44_154"/>
</filter>
<filter id="filter6_i_44_154" x="350.119" y="103.619" width="53.9171" height="71.5587" filterUnits="userSpaceOnUse" color-interpolation-filters="sRGB">
<feFlood flood-opacity="0" result="BackgroundImageFix"/>
<feBlend mode="normal" in="SourceGraphic" in2="BackgroundImageFix" result="shape"/>
<feColorMatrix in="SourceAlpha" type="matrix" values="0 0 0 0 0 0 0 0 0 0 0 0 0 0 0 0 0 0 127 0" result="hardAlpha"/>
<feOffset dy="-11"/>
<feGaussianBlur stdDeviation="2"/>
<feComposite in2="hardAlpha" operator="arithmetic" k2="-1" k3="1"/>
<feColorMatrix type="matrix" values="0 0 0 0 0 0 0 0 0 0 0 0 0 0 0 0 0 0 0.25 0"/>
<feBlend mode="normal" in2="shape" result="effect1_innerShadow_44_154"/>
</filter>
<filter id="filter7_i_44_154" x="280.935" y="109.867" width="46.2835" height="71.0616" filterUnits="userSpaceOnUse" color-interpolation-filters="sRGB">
<feFlood flood-opacity="0" result="BackgroundImageFix"/>
<feBlend mode="normal" in="SourceGraphic" in2="BackgroundImageFix" result="shape"/>
<feColorMatrix in="SourceAlpha" type="matrix" values="0 0 0 0 0 0 0 0 0 0 0 0 0 0 0 0 0 0 127 0" result="hardAlpha"/>
<feOffset dy="-9"/>
<feGaussianBlur stdDeviation="2"/>
<feComposite in2="hardAlpha" operator="arithmetic" k2="-1" k3="1"/>
<feColorMatrix type="matrix" values="0 0 0 0 0 0 0 0 0 0 0 0 0 0 0 0 0 0 0.25 0"/>
<feBlend mode="normal" in2="shape" result="effect1_innerShadow_44_154"/>
</filter>
</defs>
</svg>
