<svg width="329" height="338" viewBox="0 0 329 338" fill="none" xmlns="http://www.w3.org/2000/svg">
<path d="M119.924 262.653C134.924 274.653 146.403 279.29 130.424 289.153C114.445 299.016 94.3828 289.216 82.9244 270.653C71.466 252.089 62.4454 203.016 78.4243 193.153C90.9244 180.653 150.424 136.153 119.924 262.653Z" fill="#4E0054"/>
<path d="M119.924 262.653C134.924 274.653 146.403 279.29 130.424 289.153C114.445 299.016 94.3828 289.216 82.9244 270.653C71.466 252.089 62.4454 203.016 78.4243 193.153C90.9244 180.653 150.424 136.153 119.924 262.653Z" fill="#4E0054"/>
<path d="M73.9244 278.653C88.9244 290.653 100.403 295.29 84.4243 305.153C68.4454 315.016 48.3828 305.216 36.9244 286.653C25.466 268.089 16.4454 219.016 32.4243 209.153C44.9244 196.653 104.424 152.153 73.9244 278.653Z" fill="#4E0054"/>
<path d="M212 266.675C212 294.013 282.5 296.675 275.5 327.175C268.5 357.675 166.5 308.175 153 270.675C153 243.336 165.655 248.175 182.5 248.175C199.345 248.175 212 239.336 212 266.675Z" fill="#4E0054"/>
<path d="M263 247.037C263 274.375 333.5 277.037 326.5 307.537C319.5 338.037 217.5 288.537 204 251.037C204 223.699 216.655 228.537 233.5 228.537C250.345 228.537 263 219.699 263 247.037Z" fill="#4E0054"/>
<path d="M66 299.5L75.5 307.5M75.5 295.5L84.5 303.5M82.5 291.5L91 298M115 284.5L125 291.5M122.5 280.5L132.5 286.5M129.5 276L137.5 280.5M256 330.5L265.5 336M262 324L273 330.5M265.5 316.5L275 321.5M308 311.5L318 316.5M315 304.5L324.5 309.5M318 296.5L326 300.5" stroke="#B576A7" stroke-width="4" stroke-linecap="round"/>
<g filter="url(#filter0_d_18_65)">
<path d="M249.585 221.045C324.5 292.674 177.063 286.51 122.5 259.174C67.5 251.675 -19.4998 205.175 46 123.175C55.323 104.566 96.9417 87.0242 130 101.674C159 108.674 181.286 152.439 216.5 180.174C251.714 207.91 265.046 190.184 249.585 221.045Z" fill="#4E0054"/>
</g>
<g filter="url(#filter1_d_18_65)">
<ellipse cx="246.5" cy="210.675" rx="65.5" ry="61.5" fill="#4E0054"/>
</g>
<path d="M291.234 143.871C295.876 140.596 302.279 143.923 302.269 149.603L302.233 169.117C302.224 174.362 296.661 177.734 292.006 175.316L276.096 167.05C271.442 164.632 271.002 158.142 275.289 155.118L291.234 143.871Z" fill="#4E0054"/>
<path d="M205.03 140.871C200.388 137.596 193.985 140.923 193.995 146.603L194.031 166.117C194.041 171.362 199.603 174.734 204.258 172.316L220.168 164.05C224.823 161.632 225.262 155.142 220.976 152.118L205.03 140.871Z" fill="#4E0054"/>
<path d="M206.966 149.204C203.48 147.045 198.991 149.083 199.008 152.818L199.066 165.93C199.082 169.561 203.369 172.086 206.841 170.509L219.023 164.977C222.495 163.4 222.596 158.882 219.207 156.784L206.966 149.204Z" fill="#B576A7"/>
<path d="M291.59 149.204C295.076 147.045 299.565 149.083 299.548 152.818L299.49 165.93C299.474 169.561 295.187 172.086 291.715 170.509L279.533 164.977C276.061 163.4 275.96 158.882 279.349 156.784L291.59 149.204Z" fill="#B576A7"/>
<path d="M42 67.1745C35.5821 90.3248 77.5 111.175 50 129.175C38 151.675 -16.5 94.1746 17 32.1746C30.7782 6.67455 67.0717 -9.49961 80 6.17457C92.9283 21.8487 48.4179 44.0241 42 67.1745Z" fill="#4E0054"/>
<circle cx="233.5" cy="237.675" r="5.5" fill="#FFCCE3"/>
<circle cx="284.5" cy="231.675" r="5.5" fill="#FFCCE3"/>
<path d="M305 228.675L325 230.675M299 240.675L319 249.175M196.5 239.675L177 245.675M205 250.675L194 263.175" stroke="#B576A7" stroke-width="7" stroke-linecap="round"/>
<path d="M262.74 236.14C264.941 235.44 267.074 237.385 266.58 239.641L265.838 243.025C265.344 245.28 262.593 246.155 260.886 244.599L258.327 242.265C256.62 240.709 257.238 237.889 259.439 237.189L262.74 236.14Z" fill="#FFCCE3"/>
<defs>
<filter id="filter0_d_18_65" x="18.5817" y="96.2286" width="255.801" height="189.993" filterUnits="userSpaceOnUse" color-interpolation-filters="sRGB">
<feFlood flood-opacity="0" result="BackgroundImageFix"/>
<feColorMatrix in="SourceAlpha" type="matrix" values="0 0 0 0 0 0 0 0 0 0 0 0 0 0 0 0 0 0 127 0" result="hardAlpha"/>
<feOffset dy="4"/>
<feGaussianBlur stdDeviation="2"/>
<feComposite in2="hardAlpha" operator="out"/>
<feColorMatrix type="matrix" values="0 0 0 0 0 0 0 0 0 0 0 0 0 0 0 0 0 0 0.25 0"/>
<feBlend mode="normal" in2="BackgroundImageFix" result="effect1_dropShadow_18_65"/>
<feBlend mode="normal" in="SourceGraphic" in2="effect1_dropShadow_18_65" result="shape"/>
</filter>
<filter id="filter1_d_18_65" x="175" y="149.175" width="139" height="131" filterUnits="userSpaceOnUse" color-interpolation-filters="sRGB">
<feFlood flood-opacity="0" result="BackgroundImageFix"/>
<feColorMatrix in="SourceAlpha" type="matrix" values="0 0 0 0 0 0 0 0 0 0 0 0 0 0 0 0 0 0 127 0" result="hardAlpha"/>
<feOffset dx="-2" dy="4"/>
<feGaussianBlur stdDeviation="2"/>
<feComposite in2="hardAlpha" operator="out"/>
<feColorMatrix type="matrix" values="0 0 0 0 0 0 0 0 0 0 0 0 0 0 0 0 0 0 0.25 0"/>
<feBlend mode="normal" in2="BackgroundImageFix" result="effect1_dropShadow_18_65"/>
<feBlend mode="normal" in="SourceGraphic" in2="effect1_dropShadow_18_65" result="shape"/>
</filter>
</defs>
</svg>
