<svg width="192" height="170" viewBox="0 0 192 170" fill="none" xmlns="http://www.w3.org/2000/svg">
<path d="M120.535 77.1561L141.096 82.2427L76.6233 162.308L91.5979 92.5663L94.5752 78.6998C95.2464 75.5736 98.2512 73.5231 101.407 74.0375L120.535 77.1561Z" fill="#FFD3E7"/>
<path d="M120.535 77.1561L101.407 74.0375C98.2512 73.5231 95.2464 75.5736 94.5752 78.6998L91.5979 92.5663L74.9585 84.2037L77.0336 9.85052C77.1794 4.62694 83.4692 2.0734 87.215 5.71713L122.788 40.3216L120.535 77.1561Z" fill="#FBA6CC"/>
<path d="M148.425 74.7759L186.029 104.045L152.651 121.82L148.425 74.7759Z" fill="#FBA6CC"/>
<path fill-rule="evenodd" clip-rule="evenodd" d="M140.429 8.35863L149.792 25.9411L186.029 104.045L148.425 74.7759L152.651 121.82L151.562 159.197C151.465 162.533 148.663 165.149 145.328 165.018L76.6233 162.308L5.17418 61.7807C1.55041 56.6822 7.17009 50.1349 12.7591 52.9438L74.9585 84.2037L91.5979 92.5663L76.6233 162.308L141.096 82.2427L120.535 77.1561L122.788 40.3216L123.416 30.0548C123.496 28.7497 124 27.5064 124.851 26.5141L140.429 8.35863ZM179.55 15.59L181.127 14.3642L178.674 9.75856C181.222 9.85184 182.222 12.6011 181.127 14.3642C180.796 14.8957 180.276 15.3375 179.55 15.59Z" fill="#FFD3E7"/>
<path d="M149.792 25.9411L140.429 8.35863L178.674 9.75856L181.127 14.3642L179.55 15.59L149.792 25.9411Z" fill="#FBA6CC"/>
<path d="M181.127 14.3642L179.55 15.59M181.127 14.3642L178.674 9.75856M181.127 14.3642C182.222 12.6011 181.222 9.85184 178.674 9.75856M181.127 14.3642C180.796 14.8957 180.276 15.3375 179.55 15.59M140.429 8.35863L149.792 25.9411M140.429 8.35863L178.674 9.75856M140.429 8.35863L124.851 26.5141M149.792 25.9411L186.029 104.045M149.792 25.9411L179.55 15.59M120.535 77.1561L141.096 82.2427M120.535 77.1561L101.407 74.0375C98.2512 73.5231 95.2464 75.5736 94.5752 78.6998L91.5979 92.5663M120.535 77.1561L122.788 40.3216M141.096 82.2427C141.096 82.2427 145.563 77.6919 148.425 74.7759M141.096 82.2427L76.6233 162.308M148.425 74.7759C163.111 86.2063 186.029 104.045 186.029 104.045M148.425 74.7759C150.076 93.1479 152.651 121.82 152.651 121.82M148.425 74.7759L186.029 104.045M148.425 74.7759L152.651 121.82M186.029 104.045L152.651 121.82M152.651 121.82L151.562 159.197M76.6233 162.308L91.5979 92.5663M76.6233 162.308L5.17418 61.7807M76.6233 162.308L145.328 165.018M91.5979 92.5663L74.9585 84.2037M122.788 40.3216L123.416 30.0548M122.788 40.3216L87.215 5.71713M74.9585 84.2037L77.0336 9.85052M74.9585 84.2037L12.7591 52.9438M178.674 9.75856C181.99 9.87996 182.684 14.4997 179.55 15.59M124.851 26.5141C124 27.5064 123.496 28.7497 123.416 30.0548M124.851 26.5141C124 27.5064 123.496 28.7497 123.416 30.0548M87.215 5.71713C83.4692 2.0734 77.1794 4.62694 77.0336 9.85052M87.215 5.71713C83.4692 2.0734 77.1794 4.62694 77.0336 9.85052M12.7591 52.9438C7.17009 50.1349 1.55041 56.6822 5.17418 61.7807M12.7591 52.9438C7.1701 50.1349 1.55042 56.6822 5.17418 61.7807M145.328 165.018C148.663 165.149 151.465 162.533 151.562 159.197M145.328 165.018C148.663 165.149 151.465 162.533 151.562 159.197" stroke="#4E0054" stroke-width="8"/>
</svg>
