<svg width="193" height="191" viewBox="0 0 193 191" fill="none" xmlns="http://www.w3.org/2000/svg">
<path d="M91.971 114.816L85.9468 135.122L187.635 120.065L119.912 97.6655L106.447 93.2118C103.411 92.2077 100.121 93.7605 98.9673 96.7423L91.971 114.816Z" fill="#FFD3E7"/>
<path d="M91.971 114.816L98.9673 96.7423C100.121 93.7605 103.411 92.2077 106.447 93.2118L119.912 97.6655L121.126 79.0825L55.9578 43.2239C51.3795 40.7047 45.9927 44.8357 47.2382 49.9107L59.0668 98.1082L91.971 114.816Z" fill="#FBA6CC"/>
<path d="M75.7966 137.662L81.9963 184.909L114.225 165.126L75.7966 137.662Z" fill="#FBA6CC"/>
<path fill-rule="evenodd" clip-rule="evenodd" d="M22.5719 97.1362L32.9929 114.113L81.9963 184.909L75.7966 137.662L114.225 165.126L147.008 183.112C149.934 184.718 153.608 183.626 155.183 180.684L187.635 120.065L137.124 7.55145C134.563 1.84496 126.071 3.37582 125.663 9.61765L121.126 79.0825L119.912 97.6655L187.635 120.065L85.9468 135.122L91.971 114.816L59.0668 98.1082L49.8955 93.4512C48.7296 92.8592 47.4023 92.6642 46.1154 92.896L22.5719 97.1362ZM8.99906 134.533L7.14359 135.272L4.41388 130.825C3.20402 133.07 5.06848 135.324 7.14359 135.272C7.76908 135.257 8.41371 135.032 8.99906 134.533Z" fill="#FFD3E7"/>
<path d="M32.9929 114.113L22.5719 97.1362L4.41388 130.825L7.14359 135.272L8.99906 134.533L32.9929 114.113Z" fill="#FBA6CC"/>
<path d="M7.14359 135.272L8.99906 134.533M7.14359 135.272L4.41388 130.825M7.14359 135.272C5.06848 135.324 3.20402 133.07 4.41388 130.825M7.14359 135.272C7.76908 135.257 8.41371 135.032 8.99906 134.533M22.5719 97.1362L32.9929 114.113M22.5719 97.1362L4.41388 130.825M22.5719 97.1362L46.1154 92.896M32.9929 114.113L81.9963 184.909M32.9929 114.113L8.99906 134.533M91.971 114.816L85.9468 135.122M91.971 114.816L98.9673 96.7423C100.121 93.7605 103.411 92.2077 106.447 93.2118L119.912 97.6655M91.971 114.816L59.0668 98.1082M85.9468 135.122C85.9468 135.122 79.7605 136.67 75.7966 137.662M85.9468 135.122L187.635 120.065M75.7966 137.662C78.2177 156.113 81.9963 184.909 81.9963 184.909M75.7966 137.662C90.8038 148.387 114.225 165.126 114.225 165.126M75.7966 137.662L81.9963 184.909M75.7966 137.662L114.225 165.126M81.9963 184.909L114.225 165.126M114.225 165.126L147.008 183.112M187.635 120.065L119.912 97.6655M187.635 120.065L137.124 7.55145M187.635 120.065L155.183 180.684M119.912 97.6655L121.126 79.0825M59.0668 98.1082L49.8955 93.4512M59.0668 98.1082L47.2382 49.9107M121.126 79.0825L55.9578 43.2239M121.126 79.0825L125.663 9.61765M4.41388 130.825C2.83933 133.747 6.47179 136.684 8.99906 134.533M46.1154 92.896C47.4023 92.6642 48.7296 92.8592 49.8955 93.4512M46.1154 92.896C47.4023 92.6642 48.7296 92.8592 49.8955 93.4512M47.2382 49.9107C45.9927 44.8357 51.3795 40.7047 55.9578 43.2239M47.2382 49.9107C45.9927 44.8357 51.3795 40.7047 55.9578 43.2239M125.663 9.61765C126.071 3.37582 134.563 1.84496 137.124 7.55145M125.663 9.61765C126.071 3.37583 134.563 1.84498 137.124 7.55145M155.183 180.684C153.608 183.626 149.934 184.718 147.008 183.112M155.183 180.684C153.608 183.626 149.934 184.718 147.008 183.112" stroke="#4E0054" stroke-width="8"/>
</svg>
