<svg width="184" height="180" viewBox="0 0 184 180" fill="none" xmlns="http://www.w3.org/2000/svg">
<path d="M93.4464 86.8021L108.136 102.061L10.9194 135.468L60.7476 84.4263L70.6548 74.2778C72.8884 71.9899 76.5237 71.8554 78.9202 73.9721L93.4464 86.8021Z" fill="#FFD3E7"/>
<path d="M93.4464 86.8021L78.9202 73.9721C76.5237 71.8554 72.8884 71.9899 70.6548 74.2778L60.7476 84.4263L51.1216 68.4846L92.4904 6.66767C95.3967 2.32481 102.08 3.51485 103.309 8.59398L114.977 56.8305L93.4464 86.8021Z" fill="#FBA6CC"/>
<path d="M118.317 99.6467L134.546 144.45L96.8294 141.71L118.317 99.6467Z" fill="#FBA6CC"/>
<path fill-rule="evenodd" clip-rule="evenodd" d="M146.934 39.1797L145.491 59.0476L134.546 144.45L118.317 99.6467L96.8294 141.71L75.9945 172.76C74.1347 175.532 70.3704 176.253 67.618 174.365L10.9194 135.468L4.01182 12.3302C3.66147 6.08492 11.9054 3.53811 15.1387 8.89278L51.1216 68.4846L60.7476 84.4263L10.9194 135.468L108.136 102.061L93.4464 86.8021L114.977 56.8305L120.978 48.4766C121.741 47.4147 122.83 46.631 124.079 46.2449L146.934 39.1797ZM176.188 66.1418L178.176 65.9445L178.554 60.7402C180.661 62.1768 180.042 65.0361 178.176 65.9445C177.613 66.2183 176.937 66.3149 176.188 66.1418Z" fill="#FFD3E7"/>
<path d="M145.491 59.0476L146.934 39.1797L178.554 60.7402L178.176 65.9445L176.188 66.1418L145.491 59.0476Z" fill="#FBA6CC"/>
<path d="M178.176 65.9445L176.188 66.1418M178.176 65.9445L178.554 60.7402M178.176 65.9445C180.042 65.0361 180.661 62.1768 178.554 60.7402M178.176 65.9445C177.613 66.2183 176.937 66.3149 176.188 66.1418M146.934 39.1797L145.491 59.0476M146.934 39.1797L178.554 60.7402M146.934 39.1797L124.079 46.2449M145.491 59.0476L134.546 144.45M145.491 59.0476L176.188 66.1418M93.4464 86.8021L108.136 102.061M93.4464 86.8021L78.9202 73.9721C76.5237 71.8554 72.8884 71.9899 70.6548 74.2778L60.7476 84.4263M93.4464 86.8021L114.977 56.8305M108.136 102.061C108.136 102.061 114.341 100.589 118.317 99.6467M108.136 102.061L10.9194 135.468M118.317 99.6467C124.655 117.144 134.546 144.45 134.546 144.45M118.317 99.6467C109.926 116.073 96.8294 141.71 96.8294 141.71M118.317 99.6467L134.546 144.45M118.317 99.6467L96.8294 141.71M134.546 144.45L96.8294 141.71M96.8294 141.71L75.9945 172.76M10.9194 135.468L60.7476 84.4263M10.9194 135.468L4.01182 12.3302M10.9194 135.468L67.618 174.365M60.7476 84.4263L51.1216 68.4846M114.977 56.8305L120.978 48.4766M114.977 56.8305L103.309 8.59398M51.1216 68.4846L92.4904 6.66767M51.1216 68.4846L15.1387 8.89278M178.554 60.7402C181.296 62.6098 179.422 66.889 176.188 66.1418M124.079 46.2449C122.83 46.631 121.741 47.4147 120.978 48.4766M124.079 46.2449C122.83 46.631 121.741 47.4147 120.978 48.4766M103.309 8.59398C102.08 3.51485 95.3967 2.32481 92.4904 6.66767M103.309 8.59398C102.08 3.51485 95.3967 2.32481 92.4904 6.66767M15.1387 8.89278C11.9054 3.53811 3.66147 6.08492 4.01182 12.3302M15.1387 8.89278C11.9054 3.53811 3.66148 6.08493 4.01182 12.3302M67.618 174.365C70.3704 176.253 74.1347 175.532 75.9945 172.76M67.618 174.365C70.3704 176.253 74.1347 175.532 75.9945 172.76" stroke="#4E0054" stroke-width="8"/>
</svg>
