<svg width="116" height="116" viewBox="0 0 116 116" fill="none" xmlns="http://www.w3.org/2000/svg">
<path d="M93.1384 25.7616C86.71 22.7649 79.75 20.5899 72.5 19.3333C72.3726 19.3351 72.2509 19.3872 72.1617 19.4783C71.2917 21.0733 70.2767 23.1516 69.6 24.7466C61.9102 23.5873 54.0899 23.5873 46.4 24.7466C45.7234 23.1033 44.7084 21.0733 43.79 19.4783C43.7417 19.3816 43.5967 19.3333 43.4517 19.3333C36.2017 20.5899 29.29 22.7649 22.8134 25.7616C22.765 25.7616 22.7167 25.8099 22.6684 25.8583C9.5217 45.5299 5.8967 64.6699 7.68504 83.6166C7.68504 83.7133 7.73337 83.8099 7.83004 83.8583C16.53 90.2383 24.8917 94.1049 33.1567 96.6666C33.3017 96.7149 33.4467 96.6666 33.495 96.5699C35.4284 93.9116 37.1684 91.1083 38.6667 88.1599C38.7634 87.9666 38.6667 87.7733 38.4734 87.7249C35.7184 86.6616 33.1084 85.4049 30.5467 83.9549C30.3534 83.8583 30.3534 83.5683 30.4984 83.4233C31.03 83.0366 31.5617 82.6016 32.0934 82.2149C32.19 82.1183 32.335 82.1183 32.4317 82.1666C49.0584 89.7549 66.99 89.7549 83.4234 82.1666C83.52 82.1183 83.665 82.1183 83.7617 82.2149C84.2934 82.6499 84.825 83.0366 85.3567 83.4716C85.55 83.6166 85.55 83.9066 85.3084 84.0033C82.795 85.5016 80.1367 86.7099 77.3817 87.7733C77.1884 87.8216 77.14 88.0633 77.1884 88.2083C78.735 91.1566 80.475 93.9599 82.36 96.6183C82.505 96.6666 82.65 96.7149 82.795 96.6666C91.1084 94.1049 99.47 90.2383 108.17 83.8583C108.267 83.8099 108.315 83.7133 108.315 83.6166C110.442 61.7216 104.787 42.7266 93.3317 25.8583C93.2834 25.8099 93.235 25.7616 93.1384 25.7616ZM41.18 72.0649C36.2017 72.0649 32.045 67.4733 32.045 61.8183C32.045 56.1633 36.105 51.5716 41.18 51.5716C46.3034 51.5716 50.3634 56.2116 50.315 61.8183C50.315 67.4733 46.255 72.0649 41.18 72.0649ZM74.8684 72.0649C69.89 72.0649 65.7334 67.4733 65.7334 61.8183C65.7334 56.1633 69.7934 51.5716 74.8684 51.5716C79.9917 51.5716 84.0517 56.2116 84.0034 61.8183C84.0034 67.4733 79.9917 72.0649 74.8684 72.0649Z" fill="#4E0054"/>
</svg>
