<svg width="116" height="116" viewBox="0 0 116 116" fill="none" xmlns="http://www.w3.org/2000/svg">
<path d="M37.7 9.66675H78.3C93.7667 9.66675 106.333 22.2334 106.333 37.7001V78.3001C106.333 85.735 103.38 92.8654 98.1226 98.1226C92.8653 103.38 85.7349 106.333 78.3 106.333H37.7C22.2334 106.333 9.66669 93.7667 9.66669 78.3001V37.7001C9.66669 30.2652 12.6202 23.1348 17.8775 17.8775C23.1347 12.6203 30.2651 9.66675 37.7 9.66675ZM36.7334 19.3334C32.1186 19.3334 27.6928 21.1666 24.4297 24.4298C21.1666 27.6929 19.3334 32.1186 19.3334 36.7334V79.2667C19.3334 88.8851 27.115 96.6667 36.7334 96.6667H79.2667C83.8814 96.6667 88.3072 94.8335 91.5703 91.5704C94.8335 88.3073 96.6667 83.8815 96.6667 79.2667V36.7334C96.6667 27.1151 88.885 19.3334 79.2667 19.3334H36.7334ZM83.375 26.5834C84.9774 26.5834 86.5141 27.2199 87.6471 28.353C88.7802 29.486 89.4167 31.0227 89.4167 32.6251C89.4167 34.2274 88.7802 35.7642 87.6471 36.8972C86.5141 38.0302 84.9774 38.6667 83.375 38.6667C81.7727 38.6667 80.2359 38.0302 79.1029 36.8972C77.9699 35.7642 77.3333 34.2274 77.3333 32.6251C77.3333 31.0227 77.9699 29.486 79.1029 28.353C80.2359 27.2199 81.7727 26.5834 83.375 26.5834ZM58 33.8334C64.4094 33.8334 70.5563 36.3795 75.0884 40.9117C79.6206 45.4438 82.1667 51.5907 82.1667 58.0001C82.1667 64.4095 79.6206 70.5564 75.0884 75.0885C70.5563 79.6206 64.4094 82.1667 58 82.1667C51.5906 82.1667 45.4437 79.6206 40.9116 75.0885C36.3795 70.5564 33.8334 64.4095 33.8334 58.0001C33.8334 51.5907 36.3795 45.4438 40.9116 40.9117C45.4437 36.3795 51.5906 33.8334 58 33.8334ZM58 43.5001C54.1544 43.5001 50.4662 45.0278 47.747 47.747C45.0277 50.4663 43.5 54.1544 43.5 58.0001C43.5 61.8457 45.0277 65.5339 47.747 68.2531C50.4662 70.9724 54.1544 72.5001 58 72.5001C61.8457 72.5001 65.5338 70.9724 68.2531 68.2531C70.9723 65.5339 72.5 61.8457 72.5 58.0001C72.5 54.1544 70.9723 50.4663 68.2531 47.747C65.5338 45.0278 61.8457 43.5001 58 43.5001Z" fill="#4E0054"/>
</svg>
