<svg width="225" height="204" viewBox="0 0 225 204" fill="none" xmlns="http://www.w3.org/2000/svg">
<ellipse cx="107.25" cy="108.029" rx="80" ry="56" transform="rotate(16.2554 107.25 108.029)" fill="#4E0054"/>
<path d="M178.946 64.5495C184.183 62.7936 189.295 67.5111 187.965 72.8722L181.316 99.6702C180.034 104.835 173.686 106.738 169.775 103.129L150.245 85.1081C146.334 81.4991 147.721 75.0185 152.767 73.3267L178.946 64.5495Z" fill="#4E0054"/>
<path d="M72.3304 29.2968C68.8578 25.0013 62.0112 26.2319 60.2516 31.4677L51.4559 57.6399C49.7606 62.6843 54.0917 67.7008 59.3295 66.7594L85.4837 62.0587C90.7216 61.1173 93.0348 54.9067 89.6891 50.7683L72.3304 29.2968Z" fill="#4E0054"/>
<circle cx="75.8834" cy="98.9974" r="5.94367" transform="rotate(16.2554 75.8834 98.9974)" fill="#FFCCE3"/>
<circle cx="135.902" cy="118.381" r="5.94367" transform="rotate(16.2554 135.902 118.381)" fill="#FFCCE3"/>
<path d="M102.908 116.202C103.442 118.449 106.209 119.275 107.887 117.688L110.405 115.309C112.083 113.723 111.415 110.914 109.202 110.254L105.883 109.263C103.67 108.603 101.572 110.586 102.106 112.832L102.908 116.202Z" fill="#FFCCE3"/>
<path d="M72.6036 36.5225C69.8804 33.457 64.9962 34.1265 63.9441 37.7097L60.25 50.2907C59.227 53.7745 62.6131 57.4201 66.3906 56.9022L79.6465 55.085C83.4241 54.5671 84.813 50.2669 82.1653 47.2863L72.6036 36.5225Z" fill="#B576A7"/>
<path d="M176.791 70.7472C180.749 69.6756 184.467 72.9125 183.384 76.4861L179.578 89.034C178.525 92.5086 173.694 93.7022 170.818 91.1986L160.727 82.4135C157.851 79.91 159.046 75.5519 162.894 74.51L176.791 70.7472Z" fill="#B576A7"/>
<path d="M45.3813 92.8878L18.0715 84.7374M44.7314 107.304L19.3531 110.166M171.389 130.494L198.699 138.644M165.948 143.48L185.607 159.783" stroke="#B576A7" stroke-width="7" stroke-linecap="round"/>
</svg>
