<svg width="116" height="116" viewBox="0 0 116 116" fill="none" xmlns="http://www.w3.org/2000/svg">
<path d="M19.3333 96.6666C16.675 96.6666 14.4001 95.7209 12.5086 93.8294C10.6172 91.938 9.66985 89.6615 9.66663 86.9999V28.9999C9.66663 26.3416 10.614 24.0667 12.5086 22.1753C14.4033 20.2838 16.6782 19.3365 19.3333 19.3333H96.6666C99.325 19.3333 101.601 20.2806 103.496 22.1753C105.391 24.0699 106.337 26.3448 106.333 28.9999V86.9999C106.333 89.6583 105.388 91.9348 103.496 93.8294C101.605 95.7241 99.3282 96.6698 96.6666 96.6666H19.3333ZM58 62.8333L96.6666 38.6666V28.9999L58 53.1666L19.3333 28.9999V38.6666L58 62.8333Z" fill="#4E0054"/>
</svg>
