<svg width="183" height="180" viewBox="0 0 183 180" fill="none" xmlns="http://www.w3.org/2000/svg">
<path fill-rule="evenodd" clip-rule="evenodd" d="M54.9602 99.1423C55.8722 99.3153 56.6782 99.8434 57.2007 100.611C57.7233 101.378 57.9197 102.321 57.7468 103.233L57.6228 103.887C61.6166 106.439 63.2415 111.828 62.3415 116.573C61.2243 122.463 56.1181 127.861 49.7428 126.652C43.3674 125.443 40.5921 118.55 41.7093 112.66C42.6093 107.914 46.0943 103.495 50.7454 102.582L50.8694 101.929C51.0423 101.017 51.5705 100.211 52.3377 99.6883C53.1049 99.1657 54.0482 98.9693 54.9602 99.1423ZM75.345 115.63C74.0164 115.447 72.6635 115.564 71.3862 115.973C69.0836 116.694 66.9795 118.265 65.4507 120.39C63.9225 122.512 63.1003 125.007 63.149 127.417C63.1977 129.827 64.1479 132.387 66.4205 134.022C68.6897 135.657 71.4192 135.747 73.7219 135.026C76.0211 134.304 78.1252 132.733 79.6534 130.611C81.1822 128.486 82.0044 125.991 81.9557 123.581C81.9338 122.24 81.616 120.921 81.0248 119.717C81.5388 118.963 81.7377 118.038 81.5793 117.139C81.4209 116.24 80.9177 115.439 80.1768 114.906C79.436 114.373 78.5163 114.15 77.6136 114.285C76.711 114.421 75.8969 114.903 75.345 115.63ZM23.1695 108.759C22.1489 109.67 21.3914 110.808 20.8886 112.013C19.9608 114.238 19.8125 116.861 20.4576 119.395C21.1027 121.929 22.4855 124.161 24.3602 125.678C26.2389 127.192 28.8119 128.108 31.522 127.418C34.232 126.727 36.0569 124.694 36.9848 122.469C37.9126 120.244 38.0609 117.621 37.4164 115.084C36.7713 112.55 35.3886 110.318 33.5132 108.804C32.471 107.959 31.2547 107.355 29.9515 107.035C29.723 106.135 29.1464 105.363 28.3485 104.888C27.5507 104.414 26.597 104.275 25.6972 104.504C24.7973 104.732 24.0252 105.309 23.5505 106.107C23.0758 106.905 22.9375 107.858 23.1661 108.758L23.1695 108.759ZM31.3604 132.495C36.8537 129.794 43.0761 128.95 49.0906 130.091C55.5897 131.323 61.0355 134.729 64.7089 138.82C68.2768 142.792 70.6349 147.977 69.7192 152.805C68.8016 157.644 64.125 160.063 59.7784 161.098C55.134 162.201 49.273 162.187 43.2209 161.039C37.1688 159.891 31.7096 157.758 27.7917 155.031C24.126 152.476 20.6598 148.513 21.5774 143.675C22.4931 138.847 26.586 134.885 31.3611 132.492L31.3604 132.495Z" fill="#4E0054"/>
<path fill-rule="evenodd" clip-rule="evenodd" d="M112.278 28.1156C113.109 27.702 114.071 27.6354 114.951 27.9305C115.831 28.2256 116.558 28.8583 116.971 29.6893L117.268 30.2846C121.992 29.9033 126.544 33.2125 128.697 37.5364C131.368 42.9038 130.565 50.2903 124.756 53.1819C118.946 56.0735 112.569 52.2617 109.897 46.8944C107.745 42.5704 107.849 36.9436 111.001 33.4039L110.705 32.8086C110.291 31.9776 110.224 31.0163 110.52 30.1362C110.815 29.2561 111.447 28.5293 112.278 28.1156ZM138.484 28.9231C137.315 29.5803 136.308 30.4916 135.538 31.5898C134.14 33.5563 133.414 36.0798 133.481 38.697C133.547 41.3111 134.4 43.7951 135.896 45.6855C137.392 47.5758 139.697 49.0403 142.496 48.9686C145.292 48.8985 147.52 47.32 148.918 45.3534C150.313 43.3884 151.039 40.8649 150.974 38.2508C150.906 35.6336 150.053 33.1496 148.557 31.2593C147.729 30.2046 146.678 29.3459 145.479 28.7447C145.433 27.8331 145.032 26.9759 144.362 26.3557C143.692 25.7356 142.807 25.4015 141.895 25.4248C140.982 25.4481 140.115 25.8268 139.478 26.4803C138.841 27.1339 138.484 28.0104 138.484 28.9231ZM92.7712 54.9968C92.5089 56.3394 92.5942 57.7044 92.9222 58.9681C93.5285 61.3014 94.9959 63.4798 97.0419 65.1081C99.0879 66.7365 101.539 67.6785 103.949 67.7532C106.361 67.8233 108.964 66.9968 110.706 64.8085C112.447 62.6203 112.671 59.8972 112.065 57.5639C111.458 55.2306 109.991 53.0522 107.943 51.4207C105.897 49.7923 103.446 48.8504 101.037 48.7788C99.6962 48.7358 98.3622 48.99 97.1308 49.5231C96.4047 48.9446 95.4786 48.6782 94.5561 48.7825C93.6336 48.8868 92.7903 49.3533 92.2118 50.0794C91.6332 50.8055 91.3668 51.7316 91.4711 52.6541C91.5755 53.5766 92.042 54.4199 92.768 54.9984L92.7712 54.9968ZM113.647 68.9508C116.389 63.4774 120.835 59.0429 126.315 56.3152C132.237 53.3674 138.634 52.7872 144.034 53.8252C149.277 54.8316 154.29 57.536 156.48 61.9351C158.675 66.3436 156.412 71.0979 153.576 74.5505C150.544 78.2375 145.867 81.7698 140.352 84.5148C134.838 87.2598 129.2 88.8619 124.43 89.0584C119.966 89.2398 114.809 88.1788 112.614 83.7703C110.424 79.3711 111.289 73.7409 113.645 68.9476L113.647 68.9508Z" fill="#4E0054"/>
</svg>
