<svg width="207" height="207" viewBox="0 0 207 207" fill="none" xmlns="http://www.w3.org/2000/svg">
<path d="M83.0428 199.463C97.5815 198.768 110.445 196.332 122.872 191.493C139.876 184.872 155.738 173.878 173.834 157.343C171.676 165.626 166.445 174.15 157.369 185.153C134.612 200.216 107.855 204.599 83.0428 199.463ZM199.384 82.5198C200.212 86.4187 200.796 90.3473 201.142 94.2834C203.257 118.317 196.479 142.609 181.807 162.155C183.517 156.819 184.246 151.416 183.94 145.635C183.543 138.14 181.419 130.286 177.866 121.419C185.248 110.276 192.329 97.378 199.384 82.5198ZM46.9955 184.065C84.3247 184.04 112.949 178.865 136.945 163.593C149.726 155.459 161.026 144.566 171.592 130.365C173.32 135.442 174.375 139.94 174.795 144.104C153.984 164.097 137.231 176.244 119.606 183.107C101.818 190.033 82.7217 191.74 56.951 190.098C53.5311 188.293 50.2052 186.282 46.9955 184.065ZM189.178 55.2821C191.709 59.8385 193.841 64.5216 195.582 69.2895C175.473 113.987 156.29 140.614 132.114 156C107.99 171.353 78.1821 175.97 35.6687 174.925C32.4738 171.927 29.4486 168.687 26.6223 165.207C41.6977 165.521 55.3309 164.975 67.7671 163.385C80.8706 161.709 92.6746 158.874 103.457 154.659C114.427 150.371 124.285 144.676 133.346 137.387C147.144 126.287 158.966 111.596 170.056 92.8406C173.604 86.8393 177.082 80.4151 180.527 73.5514C183.425 67.7807 186.299 61.6937 189.178 55.2821ZM120.676 99.0638C119.087 104.08 118.096 108.97 118.25 113.988C118.442 120.244 120.389 126.326 124.452 132.888C118.017 137.666 111.145 141.62 103.688 144.835C98.6654 136.263 95.6969 129.489 94.0701 122.86C92.4811 116.385 92.1131 109.816 92.5879 101.529L120.676 99.0638ZM157.647 95.8169C149.437 108.571 140.884 118.896 131.51 127.165C128.542 122.099 127.371 117.815 127.245 113.713C127.103 109.049 128.287 104.217 130.484 98.2022L157.647 95.8169ZM83.5359 102.325C83.1383 110.598 83.5514 117.761 85.329 125.005C87.1417 132.392 90.32 139.643 95.1778 148.099C87.3312 150.756 78.8233 152.725 69.4991 154.067C63.6098 144.372 59.0143 135.737 55.7182 127.696C52.4596 119.747 50.4906 112.426 49.7897 105.288L83.5359 102.325ZM10.3573 128.53L30.6627 131.197L48.4144 133.53C51.3914 140.393 55.1732 147.559 59.6977 155.219C47.7836 156.328 34.6344 156.552 19.9856 156.011C14.351 147.193 10.2975 137.807 7.75446 128.188L10.3573 128.53ZM148.048 15.39C156.783 19.8695 164.92 25.694 172.121 32.7971C175.271 35.9043 178.243 39.2567 181.009 42.8502C181.826 43.9114 182.621 44.9967 183.401 46.0998C179.746 54.4657 176.125 62.2605 172.484 69.5133C170.107 74.2485 167.721 78.7489 165.319 83.0268C161.185 78.676 157.137 74.6711 153.152 71.003C160.273 61.474 163.7 52.6475 162.338 42.951C161.104 34.1714 156.005 25.4131 148.048 15.39ZM55.2392 72.666C87.5728 70.0216 106.431 69.3901 138.283 70.0387C140.183 71.5719 142.102 73.1926 144.043 74.9056C148.107 78.4937 152.263 82.479 156.54 86.8797L87.9728 92.9009L49.5812 96.2714C49.9766 88.7535 51.8073 81.0581 55.2392 72.666ZM96.3338 4.71988C101.28 4.38873 106.233 4.43291 111.148 4.84356C121.266 5.68905 131.219 8.08924 140.627 11.9656L139.901 12.5844L136.477 15.5043C147.113 27.9793 152.359 36.6122 153.425 44.2033C154.307 50.4779 152.402 56.8066 146.373 65.0383C145.142 64.0066 143.915 63.0072 142.692 62.0399C140.128 60.0114 137.578 58.1244 135.038 56.3747C133.517 51.3214 131.965 46.6757 130.312 42.4093C128.075 36.6369 125.637 31.5107 122.812 26.971C116.303 16.5112 107.992 9.58288 96.3338 4.71988ZM40.8038 57.4928C45.7544 55.6243 50.5061 54.0285 55.0921 52.7128C52.356 57.5038 50.0042 62.113 48.0381 66.5944C42.7145 78.7284 40.2064 89.9478 40.5255 101.316C40.7365 108.83 42.1804 116.279 44.7351 123.968L35.2925 122.728C32.2834 97.1339 33.626 82.1456 40.8038 57.4928ZM67.3323 49.8088C88.2795 45.9747 106.354 48.9672 125.438 60.8387C102.097 60.6208 84.7445 61.3132 59.5875 63.2884C61.7867 59.0124 64.3612 54.5372 67.3323 49.8088ZM18.1186 67.1981C22.3017 65.236 26.3507 63.4136 30.2805 61.7367C24.6094 83.1108 23.5516 98.4061 26.0962 121.52L14.9048 120.05C13.5267 110.285 12.8998 102.481 13.2636 94.6471C13.6443 86.4463 15.1184 78.0411 18.1186 67.1981ZM32.8281 33.8712C48.3819 28.8115 60.327 25.6171 72.7829 25.1463C85.093 24.6812 98.2083 26.8705 115.974 33.0578C118.107 36.6914 120.056 40.8532 121.92 45.6612C122.365 46.8094 122.802 47.9928 123.238 49.2119C104.028 39.1461 85.072 37.0528 63.6896 41.3426C54.7329 43.1395 45.3973 46.0449 35.4878 49.8911C28.9495 52.4288 22.1433 55.3838 15.0137 58.7131C19.5474 49.6853 25.5106 41.2829 32.8281 33.8712ZM51.3205 19.1624C59.3737 14.1899 67.8806 10.5172 76.5903 8.09135C89.4835 10.9394 98.4956 14.7249 105.339 20.3297C93.0967 17.0353 82.6298 15.7672 72.4426 16.1522C65.3458 16.4204 58.467 17.4908 51.3205 19.1624Z" fill="#B576A7" stroke="#4E0054" stroke-width="9"/>
</svg>
