<svg width="1565" height="738" viewBox="0 0 1565 738" fill="none" xmlns="http://www.w3.org/2000/svg">
<path d="M1526 6.00163C1574.23 150.291 1570.52 208.738 1505 270.002M1505 270.002C1485.08 302.866 1421.53 290.108 1429.89 249.507C1429.96 249.179 1430.07 248.825 1430.2 248.516C1455.28 187.295 1508.99 243.073 1505 270.002Z" stroke="#4E0054" stroke-width="12" stroke-linecap="round"/>
<path d="M6.00104 697.002C13.001 735.002 238.001 767.002 427.001 647.002C616.001 527.002 748.001 742.002 597.001 729.002C530.001 713.911 507.001 662.002 616.001 628.002C725.001 594.002 827.001 713.002 1056 713.002C1413 713.002 1635.41 614.495 1507 272.002" stroke="#4E0054" stroke-width="12" stroke-linecap="round"/>
</svg>
